<?xml version="1.0" encoding="UTF-8"?>
<svg id="Layer_1" data-name="Layer 1" xmlns="http://www.w3.org/2000/svg" viewBox="0 0 499.13 70.17">
  <defs>
    <style>
      .cls-1 {
        fill: #ffffff;
        stroke: #ffffff;
        stroke-miterlimit: 10;
        stroke-width: .25px;
      }
    </style>
  </defs>
  <polygon class="cls-1" points=".55 .3 4.91 .3 18.76 32.46 32.67 .3 36.81 .3 23.04 34.13 37.89 69.64 33.32 69.64 18.82 35.33 4.75 69.64 .19 69.64 14.64 34.15 .55 .3"/>
  <rect class="cls-1" x="53.85" y=".3" width="3.6" height="69.34"/>
  <polygon class="cls-1" points="76.59 69.64 73.08 69.64 90.85 .12 95.47 .12 113.22 69.64 110.19 69.64 93.25 3.16 76.59 69.64"/>
  <polygon class="cls-1" points="125.86 .12 161.12 .12 161.12 69.64 125.86 69.64 126 66.1 158.08 66.1 157.93 3.16 125.86 3.16 125.86 .12"/>
  <polygon class="cls-1" points="282.47 .23 285.66 .23 297.6 64.09 309.03 .23 312.49 .23 323.66 64.23 335.83 .23 338.93 .23 326.59 69.74 320.7 69.74 310.62 13.39 300.55 69.74 294.8 69.74 282.47 .23"/>
  <polygon class="cls-1" points="498.95 49.18 493.42 49.18 493.42 65.55 467.61 65.55 467.61 4.42 498.95 4.42 499.01 .12 462.35 .12 462.29 69.64 498.95 69.64 498.95 49.18"/>
  <rect class="cls-1" x="125.86" y=".12" width="3.83" height="69.51"/>
  <polygon class="cls-1" points="406.67 69.96 406.35 8.77 435.53 69.96 440.15 69.96 440.15 .62 435.22 .62 436.22 62.63 407.8 .62 402.8 .62 402.8 69.96 406.67 69.96"/>
  <polyline class="cls-1" points="346.71 70.04 363.73 .53 369.36 .53 386.34 70.04 382.74 70.04 366.69 3.57 350.49 70.04"/>
  <polygon class="cls-1" points="177.88 .62 182.25 .62 196.09 32.78 210 .62 214.14 .62 200.37 34.45 215.22 69.96 210.65 69.96 196.16 35.65 182.08 69.96 177.52 69.96 191.98 34.47 177.88 .62"/>
  <rect class="cls-1" x="231.18" y=".62" width="3.6" height="69.34"/>
</svg>